<svg width="42" height="42" viewBox="0 0 42 42" fill="none" xmlns="http://www.w3.org/2000/svg">
<circle cx="21" cy="21" r="21" fill="black"/>
<path d="M13.013 11H14.4659V19.6869C15.5815 18.3604 17.229 17.5045 19.0711 17.5045C21.5619 17.5045 23.6894 19.0593 24.6364 21.256H23.0018C22.1975 19.9009 20.7446 19.0022 19.0841 19.0022C17.4366 19.0022 15.9837 19.9009 15.1664 21.256H13V11H13.013ZM13.013 26.2485V30H14.4659V27.8176C15.5815 29.1441 17.229 30 19.0711 30C21.5619 30 23.6894 28.4452 24.6364 26.2485H23.0018C22.1975 27.6036 20.7446 28.5022 19.0841 28.5022C17.4366 28.5022 15.9837 27.6036 15.1664 26.2485H13.013Z" fill="#EFE314"/>
<path d="M28.987 30H27.5341V22.3385C26.4185 23.616 24.771 24.4401 22.9289 24.4401C20.4381 24.4401 18.3106 22.9429 17.3636 20.8275H18.9982C19.8025 22.1325 21.2554 22.9978 22.9159 22.9978C24.5634 22.9978 26.0163 22.1325 26.8336 20.8275H29V30H28.987ZM28.987 16.02V11H27.5341V14.509C26.4185 13.2316 24.771 12.4074 22.9289 12.4074C20.4381 12.4074 18.3106 13.9046 17.3636 16.02H18.9982C19.8025 14.715 21.2554 13.8497 22.9159 13.8497C24.5634 13.8497 26.0163 14.715 26.8336 16.02H28.987Z" fill="#EFE314"/>
</svg>
